<svg xmlns="http://www.w3.org/2000/svg" xmlns:xlink="http://www.w3.org/1999/xlink" width="328.147" height="46.726" viewBox="0 0 328.147 46.726">
  <defs>
    <linearGradient id="linear-gradient" x1="2671.797" y1="186.278" x2="2671.817" y2="186.278" gradientUnits="objectBoundingBox">
      <stop offset="0" stop-color="#1da6b9"/>
      <stop offset="0.22" stop-color="#1c9bae"/>
      <stop offset="0.61" stop-color="#197e90"/>
      <stop offset="0.9" stop-color="#176375"/>
    </linearGradient>
    <linearGradient id="linear-gradient-2" x1="13.061" y1="1.242" x2="14.145" y2="1.242" gradientUnits="objectBoundingBox">
      <stop offset="0.11" stop-color="#6889b2"/>
      <stop offset="0.41" stop-color="#365e97"/>
      <stop offset="0.68" stop-color="#103d82"/>
      <stop offset="0.82" stop-color="#01317a"/>
    </linearGradient>
    <linearGradient id="linear-gradient-3" x1="7.525" y1="0.228" x2="7.525" y2="1.086" gradientUnits="objectBoundingBox">
      <stop offset="0.01" stop-color="#01317a"/>
      <stop offset="0.06" stop-color="#01317a"/>
      <stop offset="0.21" stop-color="#234e8c"/>
      <stop offset="0.4" stop-color="#486ea1"/>
      <stop offset="0.55" stop-color="#6082ad"/>
      <stop offset="0.65" stop-color="#6889b2"/>
      <stop offset="0.72" stop-color="#577aa9"/>
      <stop offset="0.84" stop-color="#2a5490"/>
      <stop offset="0.95" stop-color="#01317a"/>
      <stop offset="1" stop-color="#01317a"/>
    </linearGradient>
    <linearGradient id="linear-gradient-4" x1="7.276" y1="-0.008" x2="7.276" y2="0.85" gradientUnits="objectBoundingBox">
      <stop offset="0" stop-color="#f70028" stop-opacity="0.98"/>
      <stop offset="0.06" stop-color="#f70028"/>
      <stop offset="0.13" stop-color="#f92947"/>
      <stop offset="0.23" stop-color="#fc5a6a"/>
      <stop offset="0.31" stop-color="#fd7881"/>
      <stop offset="0.35" stop-color="#fe8389"/>
      <stop offset="0.9" stop-color="#f70028"/>
      <stop offset="1" stop-color="#f70028"/>
    </linearGradient>
    <linearGradient id="linear-gradient-5" x1="6.872" y1="-17.71" x2="7.957" y2="-17.71" xlink:href="#linear-gradient-2"/>
  </defs>
  <g id="Group_156" data-name="Group 156" transform="translate(-99 -31.094)">
    <g id="Group_155" data-name="Group 155" transform="translate(99 31.094)">
      <path id="Path_1" data-name="Path 1" d="M156.327,25.9h0l-.127-.1Z" transform="translate(-116.389 -19.231)" fill="url(#linear-gradient)"/>
      <path id="Path_2" data-name="Path 2" d="M156.276,25.851l.051.051h0l-.1-.076L156.2,25.8Z" transform="translate(-116.389 -19.231)" fill="#189d98"/>
      <path id="Path_3" data-name="Path 3" d="M49.713,3.821A13.336,13.336,0,0,1,58.862.1,22.591,22.591,0,0,1,73.668,6.191c.178.153.331.306.51.459l.025.025c-.178-.178-.357-.331-.535-.484A14.761,14.761,0,0,0,63.6,2.419a12.08,12.08,0,0,0-1.911.153,15.409,15.409,0,0,0-8.818,4.383,16.8,16.8,0,0,0-3.033,4.256,15.242,15.242,0,0,0-1.427,8.282,14.615,14.615,0,0,0,4.23,8.843l.025.025h-.025C45.075,20.768,43.775,9.784,49.713,3.821Z" transform="translate(-34.265 -0.08)" fill="url(#linear-gradient-2)"/>
      <path id="Path_4" data-name="Path 4" d="M15.432,3.764A13.336,13.336,0,0,1,24.581.043,20.9,20.9,0,0,0,21.242.17L20.248.3l-.127.025-.714.127L19.05.527h0c-.28.076-.561.127-.841.2-.051,0-.076.025-.1.025-.433.1-.892.255-1.3.382l-.765.229c-.408.127-.765.28-1.147.433-.1.051-.255.1-.357.153s-.2.1-.331.153l-.459.178-.433.2-.306.178c-.127.076-.255.127-.382.2s-.28.153-.433.229c-.2.1-.433.255-.612.357l-.051.025c-.127.076-.28.178-.433.255l-.255.178-.408.255c-.127.1-.28.178-.408.28a1.809,1.809,0,0,1-.357.255l-.357.255-.331.255c-.331.255-.663.561-.994.841a11.89,11.89,0,0,0-1.019.968A24.562,24.562,0,0,0,4.626,9.8c-.382.51-.739,1.045-1.07,1.58a2.42,2.42,0,0,0-.255.433c-.076.076-.1.2-.178.28-.127.255-.28.484-.408.739v.025A24.883,24.883,0,0,0,.676,18.239l-.2.866A22.909,22.909,0,0,0,6.64,40.028h0c.051.051.1.076.1.1a14.748,14.748,0,0,0,10.525,4.2,16.049,16.049,0,0,0,1.911-.127,15.5,15.5,0,0,0,13-11.978,15.514,15.514,0,0,1-4.969.28,14.757,14.757,0,0,1-8.843-4.23l-.025.025C10.794,20.711,9.494,9.727,15.432,3.764Z" transform="translate(0.016 -0.023)" fill="url(#linear-gradient-3)"/>
      <path id="Path_10" data-name="Path 10" d="M163.651,42.941A22.736,22.736,0,0,0,157,26.3h0A22.655,22.655,0,0,1,163.651,42.941Z" transform="translate(-116.986 -19.604)" fill="#189d98"/>
      <path id="Path_15" data-name="Path 15" d="M82.235,13.6l-.1-.1a14.642,14.642,0,0,0-10.525-4.2,12.08,12.08,0,0,0-1.911.153,15.366,15.366,0,0,0-8.818,4.409,16.194,16.194,0,0,0-3.033,4.256A14.994,14.994,0,0,0,56.7,21.423a15.505,15.505,0,0,1,4.969-.255,14.615,14.615,0,0,1,8.843,4.23v-.051c7.569,7.594,8.869,18.578,2.905,24.541a13.365,13.365,0,0,1-9.123,3.746,20.792,20.792,0,0,0,3.338-.127l.994-.127.1-.025.714-.127.382-.076h0c.28-.076.586-.127.841-.2l.1-.025a12.52,12.52,0,0,0,1.3-.382c.255-.1.51-.153.739-.255.408-.127.765-.28,1.147-.433l.357-.153.306-.127a3.851,3.851,0,0,0,.459-.229c.153-.076.28-.127.408-.2l.306-.153c.127-.076.255-.127.382-.2s.28-.153.433-.229c.2-.1.408-.255.612-.357l.051-.025.433-.255.255-.178.408-.255a3.888,3.888,0,0,0,.408-.28,1.809,1.809,0,0,1,.357-.255,3.094,3.094,0,0,1,.357-.255,2.884,2.884,0,0,0,.331-.255c.331-.255.663-.561.994-.841s.688-.637,1.019-.968A24.024,24.024,0,0,0,84.172,43.9c.382-.51.739-1.045,1.07-1.58a3.569,3.569,0,0,0,.255-.408c.076-.076.1-.2.178-.28.127-.229.28-.484.408-.739v-.076a25.687,25.687,0,0,0,2.064-5.4l.2-.866A22.8,22.8,0,0,0,82.21,13.624Z" transform="translate(-42.246 -6.928)" fill="url(#linear-gradient-4)"/>
      <path id="Path_16" data-name="Path 16" d="M50.765,96.716a13.25,13.25,0,0,1-9.123,3.746,22.591,22.591,0,0,1-14.806-6.091c-.178-.153-.331-.306-.51-.459a.025.025,0,0,0-.025-.025c.178.178.357.331.535.484A14.761,14.761,0,0,0,36.9,98.143a16.046,16.046,0,0,0,1.911-.127A15.442,15.442,0,0,0,52.09,81.069a14.793,14.793,0,0,0-4.2-8.843L47.86,72.2h.025C55.4,79.794,56.7,90.778,50.765,96.716Z" transform="translate(-19.594 -53.806)" fill="url(#linear-gradient-5)"/>
    </g>
    <text id="Finity_R_D_Labs" data-name="Finity R&amp;D Labs" transform="translate(153.147 66.409)" font-size="38" font-family="Podkova-Regular, Podkova"><tspan x="0" y="0">Finity R&amp;D Labs</tspan></text>
  </g>
</svg>
